<mxfile>
    <diagram id="NXoUtkJ71gg7D1fnaNGt" name="Class Diagram">
        <mxGraphModel dx="423" dy="1675" grid="1" gridSize="10" guides="1" tooltips="1" connect="1" arrows="1" fold="1" page="1" pageScale="1" pageWidth="850" pageHeight="1100" math="0" shadow="0">
            <root>
                <mxCell id="0"/>
                <mxCell id="1" parent="0"/>
                <mxCell id="-B72JW4S_CNFPvoDVsB8-190" value="Model" style="shape=folder;fontStyle=1;tabWidth=110;tabHeight=30;tabPosition=left;html=1;boundedLbl=1;labelInHeader=1;container=1;collapsible=0;recursiveResize=0;" parent="1" vertex="1">
                    <mxGeometry x="10" y="-1090" width="1650" height="1330" as="geometry"/>
                </mxCell>
                <mxCell id="qkwveqBN_5tGitOWMpCw-6" value="&lt;&lt;entity&gt;&gt;&#10;Film" style="swimlane;fontStyle=0;childLayout=stackLayout;horizontal=1;startSize=40;fillColor=none;horizontalStack=0;resizeParent=1;resizeParentMax=0;resizeLast=0;collapsible=1;marginBottom=0;" parent="1" vertex="1">
                    <mxGeometry x="500" y="-90" width="170" height="272" as="geometry"/>
                </mxCell>
                <mxCell id="31" value="- idFilm : uint64" style="text;strokeColor=none;fillColor=none;align=left;verticalAlign=top;spacingLeft=4;spacingRight=4;overflow=hidden;rotatable=0;points=[[0,0.5],[1,0.5]];portConstraint=eastwest;" parent="qkwveqBN_5tGitOWMpCw-6" vertex="1">
                    <mxGeometry y="40" width="170" height="34" as="geometry"/>
                </mxCell>
                <mxCell id="qkwveqBN_5tGitOWMpCw-7" value="- judul : string" style="text;strokeColor=none;fillColor=none;align=left;verticalAlign=top;spacingLeft=4;spacingRight=4;overflow=hidden;rotatable=0;points=[[0,0.5],[1,0.5]];portConstraint=eastwest;" parent="qkwveqBN_5tGitOWMpCw-6" vertex="1">
                    <mxGeometry y="74" width="170" height="30" as="geometry"/>
                </mxCell>
                <mxCell id="30" value="- sinopsis : string" style="text;strokeColor=none;fillColor=none;align=left;verticalAlign=top;spacingLeft=4;spacingRight=4;overflow=hidden;rotatable=0;points=[[0,0.5],[1,0.5]];portConstraint=eastwest;" parent="qkwveqBN_5tGitOWMpCw-6" vertex="1">
                    <mxGeometry y="104" width="170" height="30" as="geometry"/>
                </mxCell>
                <mxCell id="qkwveqBN_5tGitOWMpCw-9" value="- pemainUtama: string" style="text;strokeColor=none;fillColor=none;align=left;verticalAlign=top;spacingLeft=4;spacingRight=4;overflow=hidden;rotatable=0;points=[[0,0.5],[1,0.5]];portConstraint=eastwest;" parent="qkwveqBN_5tGitOWMpCw-6" vertex="1">
                    <mxGeometry y="134" width="170" height="34" as="geometry"/>
                </mxCell>
                <mxCell id="29" value="- genre : string" style="text;strokeColor=none;fillColor=none;align=left;verticalAlign=top;spacingLeft=4;spacingRight=4;overflow=hidden;rotatable=0;points=[[0,0.5],[1,0.5]];portConstraint=eastwest;" parent="qkwveqBN_5tGitOWMpCw-6" vertex="1">
                    <mxGeometry y="168" width="170" height="36" as="geometry"/>
                </mxCell>
                <mxCell id="qkwveqBN_5tGitOWMpCw-8" value="- sutradara : string" style="text;strokeColor=none;fillColor=none;align=left;verticalAlign=top;spacingLeft=4;spacingRight=4;overflow=hidden;rotatable=0;points=[[0,0.5],[1,0.5]];portConstraint=eastwest;" parent="qkwveqBN_5tGitOWMpCw-6" vertex="1">
                    <mxGeometry y="204" width="170" height="34" as="geometry"/>
                </mxCell>
                <mxCell id="135" value="- tahunRilis : date" style="text;strokeColor=none;fillColor=none;align=left;verticalAlign=top;spacingLeft=4;spacingRight=4;overflow=hidden;rotatable=0;points=[[0,0.5],[1,0.5]];portConstraint=eastwest;" parent="qkwveqBN_5tGitOWMpCw-6" vertex="1">
                    <mxGeometry y="238" width="170" height="34" as="geometry"/>
                </mxCell>
                <mxCell id="xPRmOCERpgeF5Jm3187p-31" value="&lt;&lt;entity&gt;&gt;&#10;Langganan" style="swimlane;fontStyle=1;align=center;verticalAlign=top;childLayout=stackLayout;horizontal=1;startSize=40;horizontalStack=0;resizeParent=1;resizeParentMax=0;resizeLast=0;collapsible=1;marginBottom=0;" parent="1" vertex="1">
                    <mxGeometry x="880" y="-1018" width="570" height="302" as="geometry"/>
                </mxCell>
                <mxCell id="xPRmOCERpgeF5Jm3187p-32" value="- idLangganan : string" style="text;strokeColor=none;fillColor=none;align=left;verticalAlign=top;spacingLeft=4;spacingRight=4;overflow=hidden;rotatable=0;points=[[0,0.5],[1,0.5]];portConstraint=eastwest;" parent="xPRmOCERpgeF5Jm3187p-31" vertex="1">
                    <mxGeometry y="40" width="570" height="26" as="geometry"/>
                </mxCell>
                <mxCell id="xPRmOCERpgeF5Jm3187p-33" value="- tanggalTransaksi : time" style="text;strokeColor=none;fillColor=none;align=left;verticalAlign=top;spacingLeft=4;spacingRight=4;overflow=hidden;rotatable=0;points=[[0,0.5],[1,0.5]];portConstraint=eastwest;" parent="xPRmOCERpgeF5Jm3187p-31" vertex="1">
                    <mxGeometry y="66" width="570" height="26" as="geometry"/>
                </mxCell>
                <mxCell id="xPRmOCERpgeF5Jm3187p-185" value="- statusLangganan : bool" style="text;strokeColor=none;fillColor=none;align=left;verticalAlign=top;spacingLeft=4;spacingRight=4;overflow=hidden;rotatable=0;points=[[0,0.5],[1,0.5]];portConstraint=eastwest;" parent="xPRmOCERpgeF5Jm3187p-31" vertex="1">
                    <mxGeometry y="92" width="570" height="26" as="geometry"/>
                </mxCell>
                <mxCell id="xPRmOCERpgeF5Jm3187p-167" value="- jenisLangganan : string" style="text;strokeColor=none;fillColor=none;align=left;verticalAlign=top;spacingLeft=4;spacingRight=4;overflow=hidden;rotatable=0;points=[[0,0.5],[1,0.5]];portConstraint=eastwest;" parent="xPRmOCERpgeF5Jm3187p-31" vertex="1">
                    <mxGeometry y="118" width="570" height="26" as="geometry"/>
                </mxCell>
                <mxCell id="xPRmOCERpgeF5Jm3187p-74" value="- awalTanggalBerlangganan : time" style="text;strokeColor=none;fillColor=none;align=left;verticalAlign=top;spacingLeft=4;spacingRight=4;overflow=hidden;rotatable=0;points=[[0,0.5],[1,0.5]];portConstraint=eastwest;" parent="xPRmOCERpgeF5Jm3187p-31" vertex="1">
                    <mxGeometry y="144" width="570" height="26" as="geometry"/>
                </mxCell>
                <mxCell id="xPRmOCERpgeF5Jm3187p-34" value="- akhirTanggalBerlangganan : time" style="text;strokeColor=none;fillColor=none;align=left;verticalAlign=top;spacingLeft=4;spacingRight=4;overflow=hidden;rotatable=0;points=[[0,0.5],[1,0.5]];portConstraint=eastwest;" parent="xPRmOCERpgeF5Jm3187p-31" vertex="1">
                    <mxGeometry y="170" width="570" height="26" as="geometry"/>
                </mxCell>
                <mxCell id="xPRmOCERpgeF5Jm3187p-73" value="- token: string" style="text;strokeColor=none;fillColor=none;align=left;verticalAlign=top;spacingLeft=4;spacingRight=4;overflow=hidden;rotatable=0;points=[[0,0.5],[1,0.5]];portConstraint=eastwest;" parent="xPRmOCERpgeF5Jm3187p-31" vertex="1">
                    <mxGeometry y="196" width="570" height="26" as="geometry"/>
                </mxCell>
                <mxCell id="xPRmOCERpgeF5Jm3187p-36" value="" style="line;strokeWidth=1;fillColor=none;align=left;verticalAlign=middle;spacingTop=-1;spacingLeft=3;spacingRight=3;rotatable=0;labelPosition=right;points=[];portConstraint=eastwest;" parent="xPRmOCERpgeF5Jm3187p-31" vertex="1">
                    <mxGeometry y="222" width="570" height="8" as="geometry"/>
                </mxCell>
                <mxCell id="184" value="+ Berlangganan(idUser, jenisLangganan, nomorKartuKredit, bulanTahunKartuKredit,) " style="text;strokeColor=none;fillColor=none;align=left;verticalAlign=top;spacingLeft=4;spacingRight=4;overflow=hidden;rotatable=0;points=[[0,0.5],[1,0.5]];portConstraint=eastwest;" parent="xPRmOCERpgeF5Jm3187p-31" vertex="1">
                    <mxGeometry y="230" width="570" height="36" as="geometry"/>
                </mxCell>
                <mxCell id="j8zux52S4JUQsAwn6EQ1-189" value="+ berhentiBerlangganan(idUser) " style="text;strokeColor=none;fillColor=none;align=left;verticalAlign=top;spacingLeft=4;spacingRight=4;overflow=hidden;rotatable=0;points=[[0,0.5],[1,0.5]];portConstraint=eastwest;" vertex="1" parent="xPRmOCERpgeF5Jm3187p-31">
                    <mxGeometry y="266" width="570" height="36" as="geometry"/>
                </mxCell>
                <mxCell id="63" value="&lt;&lt;entity&gt;&gt;&#10;User" style="swimlane;fontStyle=0;childLayout=stackLayout;horizontal=1;startSize=39;fillColor=none;horizontalStack=0;resizeParent=1;resizeParentMax=0;resizeLast=0;collapsible=1;marginBottom=0;" parent="1" vertex="1">
                    <mxGeometry x="440" y="-1012.5" width="240" height="255" as="geometry"/>
                </mxCell>
                <mxCell id="64" value="- idUser : string" style="text;strokeColor=none;fillColor=none;align=left;verticalAlign=top;spacingLeft=4;spacingRight=4;overflow=hidden;rotatable=0;points=[[0,0.5],[1,0.5]];portConstraint=eastwest;" parent="63" vertex="1">
                    <mxGeometry y="39" width="240" height="26" as="geometry"/>
                </mxCell>
                <mxCell id="171" value="- nama: string&#10;" style="text;strokeColor=none;fillColor=none;align=left;verticalAlign=top;spacingLeft=4;spacingRight=4;overflow=hidden;rotatable=0;points=[[0,0.5],[1,0.5]];portConstraint=eastwest;" parent="63" vertex="1">
                    <mxGeometry y="65" width="240" height="26" as="geometry"/>
                </mxCell>
                <mxCell id="74" value="- email : string" style="text;strokeColor=none;fillColor=none;align=left;verticalAlign=top;spacingLeft=4;spacingRight=4;overflow=hidden;rotatable=0;points=[[0,0.5],[1,0.5]];portConstraint=eastwest;" parent="63" vertex="1">
                    <mxGeometry y="91" width="240" height="26" as="geometry"/>
                </mxCell>
                <mxCell id="xPRmOCERpgeF5Jm3187p-138" value="- namaLengkap : string" style="text;strokeColor=none;fillColor=none;align=left;verticalAlign=top;spacingLeft=4;spacingRight=4;overflow=hidden;rotatable=0;points=[[0,0.5],[1,0.5]];portConstraint=eastwest;" parent="63" vertex="1">
                    <mxGeometry y="117" width="240" height="26" as="geometry"/>
                </mxCell>
                <mxCell id="66" value="- password : string" style="text;strokeColor=none;fillColor=none;align=left;verticalAlign=top;spacingLeft=4;spacingRight=4;overflow=hidden;rotatable=0;points=[[0,0.5],[1,0.5]];portConstraint=eastwest;" parent="63" vertex="1">
                    <mxGeometry y="143" width="240" height="26" as="geometry"/>
                </mxCell>
                <mxCell id="68" value="- tipe : uint16" style="text;strokeColor=none;fillColor=none;align=left;verticalAlign=top;spacingLeft=4;spacingRight=4;overflow=hidden;rotatable=0;points=[[0,0.5],[1,0.5]];portConstraint=eastwest;" parent="63" vertex="1">
                    <mxGeometry y="169" width="240" height="26" as="geometry"/>
                </mxCell>
                <mxCell id="159" value="" style="line;strokeWidth=1;fillColor=none;align=left;verticalAlign=middle;spacingTop=-1;spacingLeft=3;spacingRight=3;rotatable=0;labelPosition=right;points=[];portConstraint=eastwest;" parent="63" vertex="1">
                    <mxGeometry y="195" width="240" height="8" as="geometry"/>
                </mxCell>
                <mxCell id="76" value="+ signIn(email,password,status) : bool" style="text;align=left;verticalAlign=top;spacingLeft=4;spacingRight=4;overflow=hidden;rotatable=0;points=[[0,0.5],[1,0.5]];portConstraint=eastwest;fontStyle=0;" parent="63" vertex="1">
                    <mxGeometry y="203" width="240" height="26" as="geometry"/>
                </mxCell>
                <mxCell id="164" value="+ signOut() : bool" style="text;align=left;verticalAlign=top;spacingLeft=4;spacingRight=4;overflow=hidden;rotatable=0;points=[[0,0.5],[1,0.5]];portConstraint=eastwest;fontStyle=0;" parent="63" vertex="1">
                    <mxGeometry y="229" width="240" height="26" as="geometry"/>
                </mxCell>
                <mxCell id="77" value="&lt;&lt;entity&gt;&gt;&#10;History" style="swimlane;fontStyle=0;childLayout=stackLayout;horizontal=1;startSize=40;fillColor=none;horizontalStack=0;resizeParent=1;resizeParentMax=0;resizeLast=0;collapsible=1;marginBottom=0;" parent="1" vertex="1">
                    <mxGeometry x="880" y="-87" width="220" height="92" as="geometry"/>
                </mxCell>
                <mxCell id="78" value="- idHistory : uint64" style="text;strokeColor=none;fillColor=none;align=left;verticalAlign=top;spacingLeft=4;spacingRight=4;overflow=hidden;rotatable=0;points=[[0,0.5],[1,0.5]];portConstraint=eastwest;" parent="77" vertex="1">
                    <mxGeometry y="40" width="220" height="26" as="geometry"/>
                </mxCell>
                <mxCell id="81" value="- tanggalAkses : time" style="text;strokeColor=none;fillColor=none;align=left;verticalAlign=top;spacingLeft=4;spacingRight=4;overflow=hidden;rotatable=0;points=[[0,0.5],[1,0.5]];portConstraint=eastwest;" parent="77" vertex="1">
                    <mxGeometry y="66" width="220" height="26" as="geometry"/>
                </mxCell>
                <mxCell id="117" value="&lt;&lt;entity&gt;&gt;&#10;Administrator" style="swimlane;fontStyle=0;childLayout=stackLayout;horizontal=1;startSize=40;fillColor=none;horizontalStack=0;resizeParent=1;resizeParentMax=0;resizeLast=0;collapsible=1;marginBottom=0;swimlaneLine=1;" parent="1" vertex="1">
                    <mxGeometry x="70" y="-574.5" width="460" height="290" as="geometry"/>
                </mxCell>
                <mxCell id="123" value="- lastLogin : date" style="text;strokeColor=none;fillColor=none;align=left;verticalAlign=top;spacingLeft=4;spacingRight=4;overflow=hidden;rotatable=0;points=[[0,0.5],[1,0.5]];portConstraint=eastwest;" parent="117" vertex="1">
                    <mxGeometry y="40" width="460" height="34" as="geometry"/>
                </mxCell>
                <mxCell id="154" value="" style="line;strokeWidth=1;fillColor=none;align=left;verticalAlign=middle;spacingTop=-1;spacingLeft=3;spacingRight=3;rotatable=0;labelPosition=right;points=[];portConstraint=eastwest;" parent="117" vertex="1">
                    <mxGeometry y="74" width="460" height="8" as="geometry"/>
                </mxCell>
                <mxCell id="124" value="+ cariMemberBerdasarkanEmail(email) : arrDataMember" style="text;fillColor=none;align=left;verticalAlign=top;spacingLeft=4;spacingRight=4;overflow=hidden;rotatable=0;points=[[0,0.5],[1,0.5]];portConstraint=eastwest;strokeWidth=1;" parent="117" vertex="1">
                    <mxGeometry y="82" width="460" height="34" as="geometry"/>
                </mxCell>
                <mxCell id="137" value="+ penangguhan(idMember) : boolean " style="text;strokeColor=none;fillColor=none;align=left;verticalAlign=top;spacingLeft=4;spacingRight=4;overflow=hidden;rotatable=0;points=[[0,0.5],[1,0.5]];portConstraint=eastwest;" parent="117" vertex="1">
                    <mxGeometry y="116" width="460" height="34" as="geometry"/>
                </mxCell>
                <mxCell id="138" value="+ tambahKoleksiFilm(judul, tahunRilis, genre, sutradara, pemain, sinopsis)" style="text;strokeColor=none;fillColor=none;align=left;verticalAlign=top;spacingLeft=4;spacingRight=4;overflow=hidden;rotatable=0;points=[[0,0.5],[1,0.5]];portConstraint=eastwest;" parent="117" vertex="1">
                    <mxGeometry y="150" width="460" height="34" as="geometry"/>
                </mxCell>
                <mxCell id="139" value="+ ubahDataFilm(idFilm) : bool&#10;" style="text;strokeColor=none;fillColor=none;align=left;verticalAlign=top;spacingLeft=4;spacingRight=4;overflow=hidden;rotatable=0;points=[[0,0.5],[1,0.5]];portConstraint=eastwest;" parent="117" vertex="1">
                    <mxGeometry y="184" width="460" height="34" as="geometry"/>
                </mxCell>
                <mxCell id="146" value="+ cariDataFilm(judul) : arrDataFilm" style="text;strokeColor=none;fillColor=none;align=left;verticalAlign=top;spacingLeft=4;spacingRight=4;overflow=hidden;rotatable=0;points=[[0,0.5],[1,0.5]];portConstraint=eastwest;" parent="117" vertex="1">
                    <mxGeometry y="218" width="460" height="36" as="geometry"/>
                </mxCell>
                <mxCell id="147" value="+ cariDataFilm(idFIlm) : arrDataFilm" style="text;strokeColor=none;fillColor=none;align=left;verticalAlign=top;spacingLeft=4;spacingRight=4;overflow=hidden;rotatable=0;points=[[0,0.5],[1,0.5]];portConstraint=eastwest;" parent="117" vertex="1">
                    <mxGeometry y="254" width="460" height="36" as="geometry"/>
                </mxCell>
                <mxCell id="129" value="&lt;&lt;entity&gt;&gt;&#10;Koleksi" style="swimlane;fontStyle=0;childLayout=stackLayout;horizontal=1;startSize=40;fillColor=none;horizontalStack=0;resizeParent=1;resizeParentMax=0;resizeLast=0;collapsible=1;marginBottom=0;" parent="1" vertex="1">
                    <mxGeometry x="150" y="-87" width="140" height="92" as="geometry"/>
                </mxCell>
                <mxCell id="130" value="- idKoleksi : uint64" style="text;strokeColor=none;fillColor=none;align=left;verticalAlign=top;spacingLeft=4;spacingRight=4;overflow=hidden;rotatable=0;points=[[0,0.5],[1,0.5]];portConstraint=eastwest;" parent="129" vertex="1">
                    <mxGeometry y="40" width="140" height="26" as="geometry"/>
                </mxCell>
                <mxCell id="131" value="- namaKoleksi : string" style="text;strokeColor=none;fillColor=none;align=left;verticalAlign=top;spacingLeft=4;spacingRight=4;overflow=hidden;rotatable=0;points=[[0,0.5],[1,0.5]];portConstraint=eastwest;" parent="129" vertex="1">
                    <mxGeometry y="66" width="140" height="26" as="geometry"/>
                </mxCell>
                <mxCell id="xPRmOCERpgeF5Jm3187p-135" value="&lt;&lt;entity&gt;&gt;&#10;Member" style="swimlane;fontStyle=0;childLayout=stackLayout;horizontal=1;startSize=39;fillColor=none;horizontalStack=0;resizeParent=1;resizeParentMax=0;resizeLast=0;collapsible=1;marginBottom=0;" parent="1" vertex="1">
                    <mxGeometry x="680" y="-574.5" width="630" height="308" as="geometry"/>
                </mxCell>
                <mxCell id="xPRmOCERpgeF5Jm3187p-140" value="- tanggalLahir : date" style="text;strokeColor=none;fillColor=none;align=left;verticalAlign=top;spacingLeft=4;spacingRight=4;overflow=hidden;rotatable=0;points=[[0,0.5],[1,0.5]];portConstraint=eastwest;" parent="xPRmOCERpgeF5Jm3187p-135" vertex="1">
                    <mxGeometry y="39" width="630" height="26" as="geometry"/>
                </mxCell>
                <mxCell id="xPRmOCERpgeF5Jm3187p-141" value="- jenisKelamin : string" style="text;strokeColor=none;fillColor=none;align=left;verticalAlign=top;spacingLeft=4;spacingRight=4;overflow=hidden;rotatable=0;points=[[0,0.5],[1,0.5]];portConstraint=eastwest;" parent="xPRmOCERpgeF5Jm3187p-135" vertex="1">
                    <mxGeometry y="65" width="630" height="26" as="geometry"/>
                </mxCell>
                <mxCell id="xPRmOCERpgeF5Jm3187p-142" value="- asalNegara : string" style="text;strokeColor=none;fillColor=none;align=left;verticalAlign=top;spacingLeft=4;spacingRight=4;overflow=hidden;rotatable=0;points=[[0,0.5],[1,0.5]];portConstraint=eastwest;" parent="xPRmOCERpgeF5Jm3187p-135" vertex="1">
                    <mxGeometry y="91" width="630" height="26" as="geometry"/>
                </mxCell>
                <mxCell id="xPRmOCERpgeF5Jm3187p-144" value="- status: bool" style="text;strokeColor=none;fillColor=none;align=left;verticalAlign=top;spacingLeft=4;spacingRight=4;overflow=hidden;rotatable=0;points=[[0,0.5],[1,0.5]];portConstraint=eastwest;" parent="xPRmOCERpgeF5Jm3187p-135" vertex="1">
                    <mxGeometry y="117" width="630" height="26" as="geometry"/>
                </mxCell>
                <mxCell id="155" value="" style="line;strokeWidth=1;fillColor=none;align=left;verticalAlign=middle;spacingTop=-1;spacingLeft=3;spacingRight=3;rotatable=0;labelPosition=right;points=[];portConstraint=eastwest;" parent="xPRmOCERpgeF5Jm3187p-135" vertex="1">
                    <mxGeometry y="143" width="630" height="8" as="geometry"/>
                </mxCell>
                <mxCell id="165" value="+ Registration(email, namaLengkap, password, tanggalLahir, jenisKelamin, asalNegara) : bool" style="text;align=left;verticalAlign=top;spacingLeft=4;spacingRight=4;overflow=hidden;rotatable=0;points=[[0,0.5],[1,0.5]];portConstraint=eastwest;fontStyle=0;" parent="xPRmOCERpgeF5Jm3187p-135" vertex="1">
                    <mxGeometry y="151" width="630" height="26" as="geometry"/>
                </mxCell>
                <mxCell id="xPRmOCERpgeF5Jm3187p-143" value="+ UpdateProfile(namaLengkap, tanggalLahir, jenisKelamin) : bool" style="text;align=left;verticalAlign=top;spacingLeft=4;spacingRight=4;overflow=hidden;rotatable=0;points=[[0,0.5],[1,0.5]];portConstraint=eastwest;fontStyle=0;" parent="xPRmOCERpgeF5Jm3187p-135" vertex="1">
                    <mxGeometry y="177" width="630" height="26" as="geometry"/>
                </mxCell>
                <mxCell id="160" value="+ cariKoleksiFilm(judul, sutradara, tahunRilis, genre, pemainUtama, sinopsis) : arrKoleksiFilm" style="text;align=left;verticalAlign=top;spacingLeft=4;spacingRight=4;overflow=hidden;rotatable=0;points=[[0,0.5],[1,0.5]];portConstraint=eastwest;fontStyle=0;" parent="xPRmOCERpgeF5Jm3187p-135" vertex="1">
                    <mxGeometry y="203" width="630" height="26" as="geometry"/>
                </mxCell>
                <mxCell id="185" value="+ cariHistoryFilm(namaFilm) : arrHistoryFilm" style="text;align=left;verticalAlign=top;spacingLeft=4;spacingRight=4;overflow=hidden;rotatable=0;points=[[0,0.5],[1,0.5]];portConstraint=eastwest;fontStyle=0;" parent="xPRmOCERpgeF5Jm3187p-135" vertex="1">
                    <mxGeometry y="229" width="630" height="26" as="geometry"/>
                </mxCell>
                <mxCell id="187" value="+ simpanHistoryFIlm(idFilm) : bool" style="text;align=left;verticalAlign=top;spacingLeft=4;spacingRight=4;overflow=hidden;rotatable=0;points=[[0,0.5],[1,0.5]];portConstraint=eastwest;fontStyle=0;" parent="xPRmOCERpgeF5Jm3187p-135" vertex="1">
                    <mxGeometry y="255" width="630" height="26" as="geometry"/>
                </mxCell>
                <mxCell id="188" value="+ lihatHistoryFIlm(idFilm) : bool" style="text;align=left;verticalAlign=top;spacingLeft=4;spacingRight=4;overflow=hidden;rotatable=0;points=[[0,0.5],[1,0.5]];portConstraint=eastwest;fontStyle=0;" parent="xPRmOCERpgeF5Jm3187p-135" vertex="1">
                    <mxGeometry y="281" width="630" height="27" as="geometry"/>
                </mxCell>
                <mxCell id="148" value="" style="endArrow=none;html=1;edgeStyle=orthogonalEdgeStyle;entryX=0;entryY=0.5;entryDx=0;entryDy=0;exitX=1;exitY=0.5;exitDx=0;exitDy=0;" parent="1" edge="1">
                    <mxGeometry relative="1" as="geometry">
                        <mxPoint x="290" y="-29" as="sourcePoint"/>
                        <mxPoint x="500" y="-28" as="targetPoint"/>
                        <Array as="points">
                            <mxPoint x="290" y="-28"/>
                        </Array>
                    </mxGeometry>
                </mxCell>
                <mxCell id="149" value="1..*" style="edgeLabel;resizable=0;html=1;align=left;verticalAlign=bottom;" parent="148" connectable="0" vertex="1">
                    <mxGeometry x="-1" relative="1" as="geometry">
                        <mxPoint x="10" y="-3" as="offset"/>
                    </mxGeometry>
                </mxCell>
                <mxCell id="150" value="1..*" style="edgeLabel;resizable=0;html=1;align=right;verticalAlign=bottom;" parent="148" connectable="0" vertex="1">
                    <mxGeometry x="1" relative="1" as="geometry">
                        <mxPoint x="-8.65" y="-5" as="offset"/>
                    </mxGeometry>
                </mxCell>
                <mxCell id="168" value="" style="endArrow=block;endSize=16;endFill=0;html=1;exitX=0.5;exitY=0;exitDx=0;exitDy=0;entryX=0.5;entryY=1;entryDx=0;entryDy=0;rounded=0;" parent="1" source="117" target="63" edge="1">
                    <mxGeometry x="-0.1031" y="117" width="160" relative="1" as="geometry">
                        <mxPoint x="160" y="-750" as="sourcePoint"/>
                        <mxPoint x="560" y="-710" as="targetPoint"/>
                        <mxPoint as="offset"/>
                        <Array as="points">
                            <mxPoint x="300" y="-640"/>
                            <mxPoint x="560" y="-640"/>
                        </Array>
                    </mxGeometry>
                </mxCell>
                <mxCell id="169" value="" style="endArrow=block;endSize=16;endFill=0;html=1;exitX=0.5;exitY=0;exitDx=0;exitDy=0;entryX=0.5;entryY=1;entryDx=0;entryDy=0;rounded=0;" parent="1" source="xPRmOCERpgeF5Jm3187p-135" target="63" edge="1">
                    <mxGeometry x="-0.3076" y="-60" width="160" relative="1" as="geometry">
                        <mxPoint x="920" y="-750" as="sourcePoint"/>
                        <mxPoint x="1080" y="-750" as="targetPoint"/>
                        <mxPoint as="offset"/>
                        <Array as="points">
                            <mxPoint x="995" y="-640"/>
                            <mxPoint x="560" y="-640"/>
                        </Array>
                    </mxGeometry>
                </mxCell>
                <mxCell id="xPRmOCERpgeF5Jm3187p-171" value="" style="endArrow=none;html=1;edgeStyle=orthogonalEdgeStyle;entryX=0.003;entryY=0.115;entryDx=0;entryDy=0;entryPerimeter=0;exitX=1;exitY=0.008;exitDx=0;exitDy=0;exitPerimeter=0;" parent="1" edge="1">
                    <mxGeometry relative="1" as="geometry">
                        <mxPoint x="680" y="-887.2919999999999" as="sourcePoint"/>
                        <mxPoint x="881.7100000000003" y="-889.01" as="targetPoint"/>
                        <Array as="points">
                            <mxPoint x="882" y="-887"/>
                        </Array>
                    </mxGeometry>
                </mxCell>
                <mxCell id="xPRmOCERpgeF5Jm3187p-172" value="1" style="edgeLabel;resizable=0;html=1;align=left;verticalAlign=bottom;" parent="xPRmOCERpgeF5Jm3187p-171" connectable="0" vertex="1">
                    <mxGeometry x="-1" relative="1" as="geometry">
                        <mxPoint x="10" y="-5" as="offset"/>
                    </mxGeometry>
                </mxCell>
                <mxCell id="xPRmOCERpgeF5Jm3187p-173" value="*" style="edgeLabel;resizable=0;html=1;align=right;verticalAlign=bottom;" parent="xPRmOCERpgeF5Jm3187p-171" connectable="0" vertex="1">
                    <mxGeometry x="1" relative="1" as="geometry">
                        <mxPoint x="-8.65" y="-5" as="offset"/>
                    </mxGeometry>
                </mxCell>
                <mxCell id="172" value="" style="endArrow=none;html=1;edgeStyle=orthogonalEdgeStyle;entryX=0;entryY=0.5;entryDx=0;entryDy=0;exitX=1;exitY=0.5;exitDx=0;exitDy=0;" parent="1" edge="1">
                    <mxGeometry relative="1" as="geometry">
                        <mxPoint x="670" y="-24" as="sourcePoint"/>
                        <mxPoint x="880" y="-25" as="targetPoint"/>
                        <Array as="points">
                            <mxPoint x="670" y="-25"/>
                        </Array>
                    </mxGeometry>
                </mxCell>
                <mxCell id="173" value="1" style="edgeLabel;resizable=0;html=1;align=left;verticalAlign=bottom;" parent="172" connectable="0" vertex="1">
                    <mxGeometry x="-1" relative="1" as="geometry">
                        <mxPoint x="10" y="-3" as="offset"/>
                    </mxGeometry>
                </mxCell>
                <mxCell id="174" value="1..*" style="edgeLabel;resizable=0;html=1;align=right;verticalAlign=bottom;" parent="172" connectable="0" vertex="1">
                    <mxGeometry x="1" relative="1" as="geometry">
                        <mxPoint x="-8.65" y="-5" as="offset"/>
                    </mxGeometry>
                </mxCell>
                <mxCell id="xPRmOCERpgeF5Jm3187p-186" value="" style="endArrow=none;html=1;edgeStyle=orthogonalEdgeStyle;entryX=0.5;entryY=0;entryDx=0;entryDy=0;exitX=0.49;exitY=1.009;exitDx=0;exitDy=0;exitPerimeter=0;" parent="1" source="188" target="77" edge="1">
                    <mxGeometry relative="1" as="geometry">
                        <mxPoint x="1020" y="-240" as="sourcePoint"/>
                        <mxPoint x="1000" y="-230" as="targetPoint"/>
                        <Array as="points">
                            <mxPoint x="989" y="-264"/>
                            <mxPoint x="989" y="-264"/>
                            <mxPoint x="989" y="-87"/>
                        </Array>
                    </mxGeometry>
                </mxCell>
                <mxCell id="xPRmOCERpgeF5Jm3187p-187" value="1" style="edgeLabel;resizable=0;html=1;align=left;verticalAlign=bottom;" parent="xPRmOCERpgeF5Jm3187p-186" connectable="0" vertex="1">
                    <mxGeometry x="-1" relative="1" as="geometry">
                        <mxPoint x="10" y="23.79" as="offset"/>
                    </mxGeometry>
                </mxCell>
                <mxCell id="xPRmOCERpgeF5Jm3187p-188" value="*" style="edgeLabel;resizable=0;html=1;align=right;verticalAlign=bottom;" parent="xPRmOCERpgeF5Jm3187p-186" connectable="0" vertex="1">
                    <mxGeometry x="1" relative="1" as="geometry">
                        <mxPoint x="20.010000000000005" y="-13" as="offset"/>
                    </mxGeometry>
                </mxCell>
                <mxCell id="PSEs1ek8aJjs4fxWT1k4-196" value="&lt;&lt;entity&gt;&gt;&#10;Response" style="swimlane;fontStyle=0;childLayout=stackLayout;horizontal=1;startSize=40;fillColor=none;horizontalStack=0;resizeParent=1;resizeParentMax=0;resizeLast=0;collapsible=1;marginBottom=0;" parent="1" vertex="1">
                    <mxGeometry x="1420" y="-430" width="170" height="104" as="geometry"/>
                </mxCell>
                <mxCell id="PSEs1ek8aJjs4fxWT1k4-197" value="- status : uint64" style="text;strokeColor=none;fillColor=none;align=left;verticalAlign=top;spacingLeft=4;spacingRight=4;overflow=hidden;rotatable=0;points=[[0,0.5],[1,0.5]];portConstraint=eastwest;" parent="PSEs1ek8aJjs4fxWT1k4-196" vertex="1">
                    <mxGeometry y="40" width="170" height="34" as="geometry"/>
                </mxCell>
                <mxCell id="PSEs1ek8aJjs4fxWT1k4-198" value="- message : string" style="text;strokeColor=none;fillColor=none;align=left;verticalAlign=top;spacingLeft=4;spacingRight=4;overflow=hidden;rotatable=0;points=[[0,0.5],[1,0.5]];portConstraint=eastwest;" parent="PSEs1ek8aJjs4fxWT1k4-196" vertex="1">
                    <mxGeometry y="74" width="170" height="30" as="geometry"/>
                </mxCell>
                <mxCell id="F-V5ND6PVSmv4cr_XZZq-194" value="" style="endArrow=none;html=1;edgeStyle=orthogonalEdgeStyle;exitX=1;exitY=0.5;exitDx=0;exitDy=0;" parent="1" source="29" edge="1">
                    <mxGeometry relative="1" as="geometry">
                        <mxPoint x="780" y="91" as="sourcePoint"/>
                        <mxPoint x="1500" y="-325" as="targetPoint"/>
                    </mxGeometry>
                </mxCell>
                <mxCell id="F-V5ND6PVSmv4cr_XZZq-195" value="*" style="edgeLabel;resizable=0;html=1;align=left;verticalAlign=bottom;" parent="F-V5ND6PVSmv4cr_XZZq-194" connectable="0" vertex="1">
                    <mxGeometry x="-1" relative="1" as="geometry">
                        <mxPoint x="10" y="-3" as="offset"/>
                    </mxGeometry>
                </mxCell>
                <mxCell id="F-V5ND6PVSmv4cr_XZZq-196" value="1" style="edgeLabel;resizable=0;html=1;align=right;verticalAlign=bottom;" parent="F-V5ND6PVSmv4cr_XZZq-194" connectable="0" vertex="1">
                    <mxGeometry x="1" relative="1" as="geometry">
                        <mxPoint x="-8.370000000000001" y="20.27" as="offset"/>
                    </mxGeometry>
                </mxCell>
                <mxCell id="F-V5ND6PVSmv4cr_XZZq-197" value="" style="endArrow=none;html=1;edgeStyle=orthogonalEdgeStyle;entryX=0;entryY=0.5;entryDx=0;entryDy=0;exitX=1;exitY=0.5;exitDx=0;exitDy=0;" parent="1" source="78" target="PSEs1ek8aJjs4fxWT1k4-197" edge="1">
                    <mxGeometry relative="1" as="geometry">
                        <mxPoint x="850" y="131.83000000000044" as="sourcePoint"/>
                        <mxPoint x="1678.3700000000003" y="-284.49999999999994" as="targetPoint"/>
                        <Array as="points">
                            <mxPoint x="1370" y="-34"/>
                            <mxPoint x="1370" y="-373"/>
                        </Array>
                    </mxGeometry>
                </mxCell>
                <mxCell id="F-V5ND6PVSmv4cr_XZZq-198" value="*" style="edgeLabel;resizable=0;html=1;align=left;verticalAlign=bottom;" parent="F-V5ND6PVSmv4cr_XZZq-197" connectable="0" vertex="1">
                    <mxGeometry x="-1" relative="1" as="geometry">
                        <mxPoint x="10" y="-3" as="offset"/>
                    </mxGeometry>
                </mxCell>
                <mxCell id="F-V5ND6PVSmv4cr_XZZq-199" value="1" style="edgeLabel;resizable=0;html=1;align=right;verticalAlign=bottom;" parent="F-V5ND6PVSmv4cr_XZZq-197" connectable="0" vertex="1">
                    <mxGeometry x="1" relative="1" as="geometry">
                        <mxPoint x="-8.65" y="-5" as="offset"/>
                    </mxGeometry>
                </mxCell>
                <mxCell id="F-V5ND6PVSmv4cr_XZZq-200" value="" style="endArrow=none;html=1;edgeStyle=orthogonalEdgeStyle;entryX=0.5;entryY=0;entryDx=0;entryDy=0;exitX=1;exitY=0.5;exitDx=0;exitDy=0;" parent="1" source="xPRmOCERpgeF5Jm3187p-167" target="PSEs1ek8aJjs4fxWT1k4-196" edge="1">
                    <mxGeometry relative="1" as="geometry">
                        <mxPoint x="1339.9999999999995" y="-718.2819999999997" as="sourcePoint"/>
                        <mxPoint x="1541.71" y="-720.0000000000002" as="targetPoint"/>
                        <Array as="points">
                            <mxPoint x="1505" y="-887"/>
                        </Array>
                    </mxGeometry>
                </mxCell>
                <mxCell id="F-V5ND6PVSmv4cr_XZZq-201" value="*" style="edgeLabel;resizable=0;html=1;align=left;verticalAlign=bottom;" parent="F-V5ND6PVSmv4cr_XZZq-200" connectable="0" vertex="1">
                    <mxGeometry x="-1" relative="1" as="geometry">
                        <mxPoint x="10" y="-5" as="offset"/>
                    </mxGeometry>
                </mxCell>
                <mxCell id="F-V5ND6PVSmv4cr_XZZq-202" value="1" style="edgeLabel;resizable=0;html=1;align=right;verticalAlign=bottom;" parent="F-V5ND6PVSmv4cr_XZZq-200" connectable="0" vertex="1">
                    <mxGeometry x="1" relative="1" as="geometry">
                        <mxPoint x="-8.65" y="-5" as="offset"/>
                    </mxGeometry>
                </mxCell>
                <mxCell id="kffBZMJveE1h7kaRIkHa-188" value="" style="endArrow=none;html=1;edgeStyle=orthogonalEdgeStyle;entryX=1;entryY=0.5;entryDx=0;entryDy=0;exitX=0.5;exitY=0;exitDx=0;exitDy=0;" parent="1" source="63" target="PSEs1ek8aJjs4fxWT1k4-197" edge="1">
                    <mxGeometry relative="1" as="geometry">
                        <mxPoint x="1580" y="-900" as="sourcePoint"/>
                        <mxPoint x="1635" y="-443" as="targetPoint"/>
                        <Array as="points">
                            <mxPoint x="560" y="-1040"/>
                            <mxPoint x="1635" y="-1040"/>
                            <mxPoint x="1635" y="-373"/>
                        </Array>
                    </mxGeometry>
                </mxCell>
                <mxCell id="kffBZMJveE1h7kaRIkHa-189" value="*" style="edgeLabel;resizable=0;html=1;align=left;verticalAlign=bottom;" parent="kffBZMJveE1h7kaRIkHa-188" connectable="0" vertex="1">
                    <mxGeometry x="-1" relative="1" as="geometry">
                        <mxPoint x="10" y="-5" as="offset"/>
                    </mxGeometry>
                </mxCell>
                <mxCell id="kffBZMJveE1h7kaRIkHa-190" value="1" style="edgeLabel;resizable=0;html=1;align=right;verticalAlign=bottom;" parent="kffBZMJveE1h7kaRIkHa-188" connectable="0" vertex="1">
                    <mxGeometry x="1" relative="1" as="geometry">
                        <mxPoint x="19.79" y="-5" as="offset"/>
                    </mxGeometry>
                </mxCell>
                <mxCell id="kffBZMJveE1h7kaRIkHa-191" value="" style="endArrow=none;html=1;edgeStyle=orthogonalEdgeStyle;exitX=0.514;exitY=1.051;exitDx=0;exitDy=0;exitPerimeter=0;entryX=0.471;entryY=1.011;entryDx=0;entryDy=0;entryPerimeter=0;" parent="1" source="131" target="PSEs1ek8aJjs4fxWT1k4-198" edge="1">
                    <mxGeometry relative="1" as="geometry">
                        <mxPoint x="670" y="261" as="sourcePoint"/>
                        <mxPoint x="1499.9999999999995" y="-160" as="targetPoint"/>
                        <Array as="points">
                            <mxPoint x="222" y="220"/>
                            <mxPoint x="1500" y="220"/>
                        </Array>
                    </mxGeometry>
                </mxCell>
                <mxCell id="kffBZMJveE1h7kaRIkHa-192" value="*" style="edgeLabel;resizable=0;html=1;align=left;verticalAlign=bottom;" parent="kffBZMJveE1h7kaRIkHa-191" connectable="0" vertex="1">
                    <mxGeometry x="-1" relative="1" as="geometry">
                        <mxPoint x="10" y="-3" as="offset"/>
                    </mxGeometry>
                </mxCell>
            </root>
        </mxGraphModel>
    </diagram>
    <diagram id="In5JC-tp4L6Gls2-BrtL" name="Skema Basis Data">
        <mxGraphModel dx="189" dy="575" grid="0" gridSize="10" guides="1" tooltips="1" connect="1" arrows="1" fold="1" page="1" pageScale="1" pageWidth="850" pageHeight="1100" math="0" shadow="0">
            <root>
                <mxCell id="C9hFgudLBUilhqlsTBZa-0"/>
                <mxCell id="C9hFgudLBUilhqlsTBZa-1" parent="C9hFgudLBUilhqlsTBZa-0"/>
                <mxCell id="EPEtj2tAFXSLmcRJbOHo-0" value="Langganan" style="shape=table;startSize=30;container=1;collapsible=1;childLayout=tableLayout;fixedRows=1;rowLines=0;fontStyle=1;align=center;resizeLast=1;" parent="C9hFgudLBUilhqlsTBZa-1" vertex="1">
                    <mxGeometry x="1280" y="10" width="190" height="270" as="geometry"/>
                </mxCell>
                <mxCell id="EPEtj2tAFXSLmcRJbOHo-1" value="" style="shape=partialRectangle;collapsible=0;dropTarget=0;pointerEvents=0;fillColor=none;top=0;left=0;bottom=1;right=0;points=[[0,0.5],[1,0.5]];portConstraint=eastwest;strokeColor=none;" parent="EPEtj2tAFXSLmcRJbOHo-0" vertex="1">
                    <mxGeometry y="30" width="190" height="30" as="geometry"/>
                </mxCell>
                <mxCell id="EPEtj2tAFXSLmcRJbOHo-2" value="PK" style="shape=partialRectangle;connectable=0;fillColor=none;top=0;left=0;bottom=0;right=0;fontStyle=1;overflow=hidden;" parent="EPEtj2tAFXSLmcRJbOHo-1" vertex="1">
                    <mxGeometry width="30" height="30" as="geometry"/>
                </mxCell>
                <mxCell id="EPEtj2tAFXSLmcRJbOHo-3" value="idLangganan" style="shape=partialRectangle;connectable=0;fillColor=none;top=0;left=0;bottom=0;right=0;align=left;spacingLeft=6;fontStyle=5;overflow=hidden;" parent="EPEtj2tAFXSLmcRJbOHo-1" vertex="1">
                    <mxGeometry x="30" width="160" height="30" as="geometry"/>
                </mxCell>
                <mxCell id="MZWZJf6DgSMqd4ZkezYw-3" value="" style="shape=partialRectangle;collapsible=0;dropTarget=0;pointerEvents=0;fillColor=none;top=0;left=0;bottom=1;right=0;points=[[0,0.5],[1,0.5]];portConstraint=eastwest;strokeColor=none;" parent="EPEtj2tAFXSLmcRJbOHo-0" vertex="1">
                    <mxGeometry y="60" width="190" height="30" as="geometry"/>
                </mxCell>
                <mxCell id="MZWZJf6DgSMqd4ZkezYw-4" value="FK" style="shape=partialRectangle;connectable=0;fillColor=none;top=0;left=0;bottom=0;right=0;fontStyle=1;overflow=hidden;" parent="MZWZJf6DgSMqd4ZkezYw-3" vertex="1">
                    <mxGeometry width="30" height="30" as="geometry"/>
                </mxCell>
                <mxCell id="MZWZJf6DgSMqd4ZkezYw-5" value="idUser" style="shape=partialRectangle;connectable=0;fillColor=none;top=0;left=0;bottom=0;right=0;align=left;spacingLeft=6;fontStyle=5;overflow=hidden;" parent="MZWZJf6DgSMqd4ZkezYw-3" vertex="1">
                    <mxGeometry x="30" width="160" height="30" as="geometry"/>
                </mxCell>
                <mxCell id="EPEtj2tAFXSLmcRJbOHo-4" value="" style="shape=partialRectangle;collapsible=0;dropTarget=0;pointerEvents=0;fillColor=none;top=0;left=0;bottom=0;right=0;points=[[0,0.5],[1,0.5]];portConstraint=eastwest;" parent="EPEtj2tAFXSLmcRJbOHo-0" vertex="1">
                    <mxGeometry y="90" width="190" height="30" as="geometry"/>
                </mxCell>
                <mxCell id="EPEtj2tAFXSLmcRJbOHo-5" value="" style="shape=partialRectangle;connectable=0;fillColor=none;top=0;left=0;bottom=0;right=0;editable=1;overflow=hidden;" parent="EPEtj2tAFXSLmcRJbOHo-4" vertex="1">
                    <mxGeometry width="30" height="30" as="geometry"/>
                </mxCell>
                <mxCell id="EPEtj2tAFXSLmcRJbOHo-6" value="tanggalTransaksi" style="shape=partialRectangle;connectable=0;fillColor=none;top=0;left=0;bottom=0;right=0;align=left;spacingLeft=6;overflow=hidden;" parent="EPEtj2tAFXSLmcRJbOHo-4" vertex="1">
                    <mxGeometry x="30" width="160" height="30" as="geometry"/>
                </mxCell>
                <mxCell id="EPEtj2tAFXSLmcRJbOHo-7" value="" style="shape=partialRectangle;collapsible=0;dropTarget=0;pointerEvents=0;fillColor=none;top=0;left=0;bottom=0;right=0;points=[[0,0.5],[1,0.5]];portConstraint=eastwest;" parent="EPEtj2tAFXSLmcRJbOHo-0" vertex="1">
                    <mxGeometry y="120" width="190" height="30" as="geometry"/>
                </mxCell>
                <mxCell id="EPEtj2tAFXSLmcRJbOHo-8" value="" style="shape=partialRectangle;connectable=0;fillColor=none;top=0;left=0;bottom=0;right=0;editable=1;overflow=hidden;" parent="EPEtj2tAFXSLmcRJbOHo-7" vertex="1">
                    <mxGeometry width="30" height="30" as="geometry"/>
                </mxCell>
                <mxCell id="EPEtj2tAFXSLmcRJbOHo-9" value="statusLangganan" style="shape=partialRectangle;connectable=0;fillColor=none;top=0;left=0;bottom=0;right=0;align=left;spacingLeft=6;overflow=hidden;" parent="EPEtj2tAFXSLmcRJbOHo-7" vertex="1">
                    <mxGeometry x="30" width="160" height="30" as="geometry"/>
                </mxCell>
                <mxCell id="EPEtj2tAFXSLmcRJbOHo-10" value="" style="shape=partialRectangle;collapsible=0;dropTarget=0;pointerEvents=0;fillColor=none;top=0;left=0;bottom=0;right=0;points=[[0,0.5],[1,0.5]];portConstraint=eastwest;" parent="EPEtj2tAFXSLmcRJbOHo-0" vertex="1">
                    <mxGeometry y="150" width="190" height="30" as="geometry"/>
                </mxCell>
                <mxCell id="EPEtj2tAFXSLmcRJbOHo-11" value="" style="shape=partialRectangle;connectable=0;fillColor=none;top=0;left=0;bottom=0;right=0;editable=1;overflow=hidden;" parent="EPEtj2tAFXSLmcRJbOHo-10" vertex="1">
                    <mxGeometry width="30" height="30" as="geometry"/>
                </mxCell>
                <mxCell id="EPEtj2tAFXSLmcRJbOHo-12" value="jenisLangganan" style="shape=partialRectangle;connectable=0;fillColor=none;top=0;left=0;bottom=0;right=0;align=left;spacingLeft=6;overflow=hidden;" parent="EPEtj2tAFXSLmcRJbOHo-10" vertex="1">
                    <mxGeometry x="30" width="160" height="30" as="geometry"/>
                </mxCell>
                <mxCell id="TH5S16iKkMmCpQxOkLHM-0" value="" style="shape=partialRectangle;collapsible=0;dropTarget=0;pointerEvents=0;fillColor=none;top=0;left=0;bottom=0;right=0;points=[[0,0.5],[1,0.5]];portConstraint=eastwest;" parent="EPEtj2tAFXSLmcRJbOHo-0" vertex="1">
                    <mxGeometry y="180" width="190" height="30" as="geometry"/>
                </mxCell>
                <mxCell id="TH5S16iKkMmCpQxOkLHM-1" value="" style="shape=partialRectangle;connectable=0;fillColor=none;top=0;left=0;bottom=0;right=0;editable=1;overflow=hidden;" parent="TH5S16iKkMmCpQxOkLHM-0" vertex="1">
                    <mxGeometry width="30" height="30" as="geometry"/>
                </mxCell>
                <mxCell id="TH5S16iKkMmCpQxOkLHM-2" value="awalTanggalBelangganan" style="shape=partialRectangle;connectable=0;fillColor=none;top=0;left=0;bottom=0;right=0;align=left;spacingLeft=6;overflow=hidden;" parent="TH5S16iKkMmCpQxOkLHM-0" vertex="1">
                    <mxGeometry x="30" width="160" height="30" as="geometry"/>
                </mxCell>
                <mxCell id="TH5S16iKkMmCpQxOkLHM-3" value="" style="shape=partialRectangle;collapsible=0;dropTarget=0;pointerEvents=0;fillColor=none;top=0;left=0;bottom=0;right=0;points=[[0,0.5],[1,0.5]];portConstraint=eastwest;" parent="EPEtj2tAFXSLmcRJbOHo-0" vertex="1">
                    <mxGeometry y="210" width="190" height="30" as="geometry"/>
                </mxCell>
                <mxCell id="TH5S16iKkMmCpQxOkLHM-4" value="" style="shape=partialRectangle;connectable=0;fillColor=none;top=0;left=0;bottom=0;right=0;editable=1;overflow=hidden;" parent="TH5S16iKkMmCpQxOkLHM-3" vertex="1">
                    <mxGeometry width="30" height="30" as="geometry"/>
                </mxCell>
                <mxCell id="TH5S16iKkMmCpQxOkLHM-5" value="akhirTanggalBelangganan" style="shape=partialRectangle;connectable=0;fillColor=none;top=0;left=0;bottom=0;right=0;align=left;spacingLeft=6;overflow=hidden;" parent="TH5S16iKkMmCpQxOkLHM-3" vertex="1">
                    <mxGeometry x="30" width="160" height="30" as="geometry"/>
                </mxCell>
                <mxCell id="TH5S16iKkMmCpQxOkLHM-6" value="" style="shape=partialRectangle;collapsible=0;dropTarget=0;pointerEvents=0;fillColor=none;top=0;left=0;bottom=0;right=0;points=[[0,0.5],[1,0.5]];portConstraint=eastwest;" parent="EPEtj2tAFXSLmcRJbOHo-0" vertex="1">
                    <mxGeometry y="240" width="190" height="30" as="geometry"/>
                </mxCell>
                <mxCell id="TH5S16iKkMmCpQxOkLHM-7" value="" style="shape=partialRectangle;connectable=0;fillColor=none;top=0;left=0;bottom=0;right=0;editable=1;overflow=hidden;" parent="TH5S16iKkMmCpQxOkLHM-6" vertex="1">
                    <mxGeometry width="30" height="30" as="geometry"/>
                </mxCell>
                <mxCell id="TH5S16iKkMmCpQxOkLHM-8" value="token" style="shape=partialRectangle;connectable=0;fillColor=none;top=0;left=0;bottom=0;right=0;align=left;spacingLeft=6;overflow=hidden;" parent="TH5S16iKkMmCpQxOkLHM-6" vertex="1">
                    <mxGeometry x="30" width="160" height="30" as="geometry"/>
                </mxCell>
                <mxCell id="EPEtj2tAFXSLmcRJbOHo-39" value="Koleksi" style="shape=table;startSize=30;container=1;collapsible=1;childLayout=tableLayout;fixedRows=1;rowLines=0;fontStyle=1;align=center;resizeLast=1;" parent="C9hFgudLBUilhqlsTBZa-1" vertex="1">
                    <mxGeometry x="30" y="680" width="180" height="100" as="geometry"/>
                </mxCell>
                <mxCell id="EPEtj2tAFXSLmcRJbOHo-40" value="" style="shape=partialRectangle;collapsible=0;dropTarget=0;pointerEvents=0;fillColor=none;top=0;left=0;bottom=1;right=0;points=[[0,0.5],[1,0.5]];portConstraint=eastwest;" parent="EPEtj2tAFXSLmcRJbOHo-39" vertex="1">
                    <mxGeometry y="30" width="180" height="30" as="geometry"/>
                </mxCell>
                <mxCell id="EPEtj2tAFXSLmcRJbOHo-41" value="PK" style="shape=partialRectangle;connectable=0;fillColor=none;top=0;left=0;bottom=0;right=0;fontStyle=1;overflow=hidden;" parent="EPEtj2tAFXSLmcRJbOHo-40" vertex="1">
                    <mxGeometry width="30" height="30" as="geometry"/>
                </mxCell>
                <mxCell id="EPEtj2tAFXSLmcRJbOHo-42" value="idKoleksi" style="shape=partialRectangle;connectable=0;fillColor=none;top=0;left=0;bottom=0;right=0;align=left;spacingLeft=6;fontStyle=5;overflow=hidden;" parent="EPEtj2tAFXSLmcRJbOHo-40" vertex="1">
                    <mxGeometry x="30" width="150" height="30" as="geometry"/>
                </mxCell>
                <mxCell id="EPEtj2tAFXSLmcRJbOHo-43" value="" style="shape=partialRectangle;collapsible=0;dropTarget=0;pointerEvents=0;fillColor=none;top=0;left=0;bottom=0;right=0;points=[[0,0.5],[1,0.5]];portConstraint=eastwest;" parent="EPEtj2tAFXSLmcRJbOHo-39" vertex="1">
                    <mxGeometry y="60" width="180" height="30" as="geometry"/>
                </mxCell>
                <mxCell id="EPEtj2tAFXSLmcRJbOHo-44" value="" style="shape=partialRectangle;connectable=0;fillColor=none;top=0;left=0;bottom=0;right=0;editable=1;overflow=hidden;" parent="EPEtj2tAFXSLmcRJbOHo-43" vertex="1">
                    <mxGeometry width="30" height="30" as="geometry"/>
                </mxCell>
                <mxCell id="EPEtj2tAFXSLmcRJbOHo-45" value="namaKoleksi" style="shape=partialRectangle;connectable=0;fillColor=none;top=0;left=0;bottom=0;right=0;align=left;spacingLeft=6;overflow=hidden;" parent="EPEtj2tAFXSLmcRJbOHo-43" vertex="1">
                    <mxGeometry x="30" width="150" height="30" as="geometry"/>
                </mxCell>
                <mxCell id="SqALKlagaXvSn-0lSOSW-8" value="Film" style="shape=table;startSize=30;container=1;collapsible=1;childLayout=tableLayout;fixedRows=1;rowLines=0;fontStyle=1;align=center;resizeLast=1;" parent="C9hFgudLBUilhqlsTBZa-1" vertex="1">
                    <mxGeometry x="590" y="680" width="180" height="272" as="geometry"/>
                </mxCell>
                <mxCell id="SqALKlagaXvSn-0lSOSW-9" value="" style="shape=partialRectangle;collapsible=0;dropTarget=0;pointerEvents=0;fillColor=none;top=0;left=0;bottom=1;right=0;points=[[0,0.5],[1,0.5]];portConstraint=eastwest;" parent="SqALKlagaXvSn-0lSOSW-8" vertex="1">
                    <mxGeometry y="30" width="180" height="30" as="geometry"/>
                </mxCell>
                <mxCell id="SqALKlagaXvSn-0lSOSW-10" value="PK" style="shape=partialRectangle;connectable=0;fillColor=none;top=0;left=0;bottom=0;right=0;fontStyle=1;overflow=hidden;" parent="SqALKlagaXvSn-0lSOSW-9" vertex="1">
                    <mxGeometry width="30" height="30" as="geometry"/>
                </mxCell>
                <mxCell id="SqALKlagaXvSn-0lSOSW-11" value="idFilm" style="shape=partialRectangle;connectable=0;fillColor=none;top=0;left=0;bottom=0;right=0;align=left;spacingLeft=6;fontStyle=5;overflow=hidden;" parent="SqALKlagaXvSn-0lSOSW-9" vertex="1">
                    <mxGeometry x="30" width="150" height="30" as="geometry"/>
                </mxCell>
                <mxCell id="SqALKlagaXvSn-0lSOSW-12" value="" style="shape=partialRectangle;collapsible=0;dropTarget=0;pointerEvents=0;fillColor=none;top=0;left=0;bottom=0;right=0;points=[[0,0.5],[1,0.5]];portConstraint=eastwest;" parent="SqALKlagaXvSn-0lSOSW-8" vertex="1">
                    <mxGeometry y="60" width="180" height="30" as="geometry"/>
                </mxCell>
                <mxCell id="SqALKlagaXvSn-0lSOSW-13" value="" style="shape=partialRectangle;connectable=0;fillColor=none;top=0;left=0;bottom=0;right=0;editable=1;overflow=hidden;" parent="SqALKlagaXvSn-0lSOSW-12" vertex="1">
                    <mxGeometry width="30" height="30" as="geometry"/>
                </mxCell>
                <mxCell id="SqALKlagaXvSn-0lSOSW-14" value="judul" style="shape=partialRectangle;connectable=0;fillColor=none;top=0;left=0;bottom=0;right=0;align=left;spacingLeft=6;overflow=hidden;" parent="SqALKlagaXvSn-0lSOSW-12" vertex="1">
                    <mxGeometry x="30" width="150" height="30" as="geometry"/>
                </mxCell>
                <mxCell id="SqALKlagaXvSn-0lSOSW-15" value="" style="shape=partialRectangle;collapsible=0;dropTarget=0;pointerEvents=0;fillColor=none;top=0;left=0;bottom=0;right=0;points=[[0,0.5],[1,0.5]];portConstraint=eastwest;" parent="SqALKlagaXvSn-0lSOSW-8" vertex="1">
                    <mxGeometry y="90" width="180" height="30" as="geometry"/>
                </mxCell>
                <mxCell id="SqALKlagaXvSn-0lSOSW-16" value="" style="shape=partialRectangle;connectable=0;fillColor=none;top=0;left=0;bottom=0;right=0;editable=1;overflow=hidden;" parent="SqALKlagaXvSn-0lSOSW-15" vertex="1">
                    <mxGeometry width="30" height="30" as="geometry"/>
                </mxCell>
                <mxCell id="SqALKlagaXvSn-0lSOSW-17" value="sinopsis" style="shape=partialRectangle;connectable=0;fillColor=none;top=0;left=0;bottom=0;right=0;align=left;spacingLeft=6;overflow=hidden;" parent="SqALKlagaXvSn-0lSOSW-15" vertex="1">
                    <mxGeometry x="30" width="150" height="30" as="geometry"/>
                </mxCell>
                <mxCell id="SqALKlagaXvSn-0lSOSW-18" value="" style="shape=partialRectangle;collapsible=0;dropTarget=0;pointerEvents=0;fillColor=none;top=0;left=0;bottom=0;right=0;points=[[0,0.5],[1,0.5]];portConstraint=eastwest;" parent="SqALKlagaXvSn-0lSOSW-8" vertex="1">
                    <mxGeometry y="120" width="180" height="30" as="geometry"/>
                </mxCell>
                <mxCell id="SqALKlagaXvSn-0lSOSW-19" value="" style="shape=partialRectangle;connectable=0;fillColor=none;top=0;left=0;bottom=0;right=0;editable=1;overflow=hidden;" parent="SqALKlagaXvSn-0lSOSW-18" vertex="1">
                    <mxGeometry width="30" height="30" as="geometry"/>
                </mxCell>
                <mxCell id="SqALKlagaXvSn-0lSOSW-20" value="pemainUtama" style="shape=partialRectangle;connectable=0;fillColor=none;top=0;left=0;bottom=0;right=0;align=left;spacingLeft=6;overflow=hidden;" parent="SqALKlagaXvSn-0lSOSW-18" vertex="1">
                    <mxGeometry x="30" width="150" height="30" as="geometry"/>
                </mxCell>
                <mxCell id="HrRxoKzUkVCaZG3zRbjx-0" value="" style="shape=partialRectangle;collapsible=0;dropTarget=0;pointerEvents=0;fillColor=none;top=0;left=0;bottom=0;right=0;points=[[0,0.5],[1,0.5]];portConstraint=eastwest;" parent="SqALKlagaXvSn-0lSOSW-8" vertex="1">
                    <mxGeometry y="150" width="180" height="30" as="geometry"/>
                </mxCell>
                <mxCell id="HrRxoKzUkVCaZG3zRbjx-1" value="" style="shape=partialRectangle;connectable=0;fillColor=none;top=0;left=0;bottom=0;right=0;editable=1;overflow=hidden;" parent="HrRxoKzUkVCaZG3zRbjx-0" vertex="1">
                    <mxGeometry width="30" height="30" as="geometry"/>
                </mxCell>
                <mxCell id="HrRxoKzUkVCaZG3zRbjx-2" value="genre" style="shape=partialRectangle;connectable=0;fillColor=none;top=0;left=0;bottom=0;right=0;align=left;spacingLeft=6;overflow=hidden;" parent="HrRxoKzUkVCaZG3zRbjx-0" vertex="1">
                    <mxGeometry x="30" width="150" height="30" as="geometry"/>
                </mxCell>
                <mxCell id="HrRxoKzUkVCaZG3zRbjx-3" value="" style="shape=partialRectangle;collapsible=0;dropTarget=0;pointerEvents=0;fillColor=none;top=0;left=0;bottom=0;right=0;points=[[0,0.5],[1,0.5]];portConstraint=eastwest;" parent="SqALKlagaXvSn-0lSOSW-8" vertex="1">
                    <mxGeometry y="180" width="180" height="30" as="geometry"/>
                </mxCell>
                <mxCell id="HrRxoKzUkVCaZG3zRbjx-4" value="" style="shape=partialRectangle;connectable=0;fillColor=none;top=0;left=0;bottom=0;right=0;editable=1;overflow=hidden;" parent="HrRxoKzUkVCaZG3zRbjx-3" vertex="1">
                    <mxGeometry width="30" height="30" as="geometry"/>
                </mxCell>
                <mxCell id="HrRxoKzUkVCaZG3zRbjx-5" value="sutradara" style="shape=partialRectangle;connectable=0;fillColor=none;top=0;left=0;bottom=0;right=0;align=left;spacingLeft=6;overflow=hidden;" parent="HrRxoKzUkVCaZG3zRbjx-3" vertex="1">
                    <mxGeometry x="30" width="150" height="30" as="geometry"/>
                </mxCell>
                <mxCell id="HrRxoKzUkVCaZG3zRbjx-6" value="" style="shape=partialRectangle;collapsible=0;dropTarget=0;pointerEvents=0;fillColor=none;top=0;left=0;bottom=0;right=0;points=[[0,0.5],[1,0.5]];portConstraint=eastwest;" parent="SqALKlagaXvSn-0lSOSW-8" vertex="1">
                    <mxGeometry y="210" width="180" height="30" as="geometry"/>
                </mxCell>
                <mxCell id="HrRxoKzUkVCaZG3zRbjx-7" value="" style="shape=partialRectangle;connectable=0;fillColor=none;top=0;left=0;bottom=0;right=0;editable=1;overflow=hidden;" parent="HrRxoKzUkVCaZG3zRbjx-6" vertex="1">
                    <mxGeometry width="30" height="30" as="geometry"/>
                </mxCell>
                <mxCell id="HrRxoKzUkVCaZG3zRbjx-8" value="pemainUtama" style="shape=partialRectangle;connectable=0;fillColor=none;top=0;left=0;bottom=0;right=0;align=left;spacingLeft=6;overflow=hidden;" parent="HrRxoKzUkVCaZG3zRbjx-6" vertex="1">
                    <mxGeometry x="30" width="150" height="30" as="geometry"/>
                </mxCell>
                <mxCell id="OYTjzRwe-NAdrD61ZFNX-0" value="" style="shape=partialRectangle;collapsible=0;dropTarget=0;pointerEvents=0;fillColor=none;top=0;left=0;bottom=0;right=0;points=[[0,0.5],[1,0.5]];portConstraint=eastwest;" parent="SqALKlagaXvSn-0lSOSW-8" vertex="1">
                    <mxGeometry y="240" width="180" height="30" as="geometry"/>
                </mxCell>
                <mxCell id="OYTjzRwe-NAdrD61ZFNX-1" value="" style="shape=partialRectangle;connectable=0;fillColor=none;top=0;left=0;bottom=0;right=0;editable=1;overflow=hidden;" parent="OYTjzRwe-NAdrD61ZFNX-0" vertex="1">
                    <mxGeometry width="30" height="30" as="geometry"/>
                </mxCell>
                <mxCell id="OYTjzRwe-NAdrD61ZFNX-2" value="tahunRilis" style="shape=partialRectangle;connectable=0;fillColor=none;top=0;left=0;bottom=0;right=0;align=left;spacingLeft=6;overflow=hidden;" parent="OYTjzRwe-NAdrD61ZFNX-0" vertex="1">
                    <mxGeometry x="30" width="150" height="30" as="geometry"/>
                </mxCell>
                <mxCell id="67IsBcvuhaZC5kMUw1IU-0" style="edgeStyle=orthogonalEdgeStyle;rounded=0;orthogonalLoop=1;jettySize=auto;html=1;entryX=0.5;entryY=1;entryDx=0;entryDy=0;startArrow=none;startFill=0;endArrow=block;endFill=1;exitX=0.5;exitY=0;exitDx=0;exitDy=0;strokeWidth=2;" parent="C9hFgudLBUilhqlsTBZa-1" source="hVgawRsf5iOSjx8g8p2L-56" target="hBaV1yMiHoCqSI7MQTeq-0" edge="1">
                    <mxGeometry relative="1" as="geometry">
                        <mxPoint x="950" y="600" as="sourcePoint"/>
                    </mxGeometry>
                </mxCell>
                <mxCell id="LJa877xxP14H3rgclWuV-13" value="User" style="shape=table;startSize=30;container=1;collapsible=1;childLayout=tableLayout;fixedRows=1;rowLines=0;fontStyle=1;align=center;resizeLast=1;" parent="C9hFgudLBUilhqlsTBZa-1" vertex="1">
                    <mxGeometry x="670" y="40" width="180" height="190" as="geometry"/>
                </mxCell>
                <mxCell id="LJa877xxP14H3rgclWuV-14" value="" style="shape=partialRectangle;collapsible=0;dropTarget=0;pointerEvents=0;fillColor=none;top=0;left=0;bottom=1;right=0;points=[[0,0.5],[1,0.5]];portConstraint=eastwest;" parent="LJa877xxP14H3rgclWuV-13" vertex="1">
                    <mxGeometry y="30" width="180" height="30" as="geometry"/>
                </mxCell>
                <mxCell id="LJa877xxP14H3rgclWuV-15" value="PK" style="shape=partialRectangle;connectable=0;fillColor=none;top=0;left=0;bottom=0;right=0;fontStyle=1;overflow=hidden;" parent="LJa877xxP14H3rgclWuV-14" vertex="1">
                    <mxGeometry width="30" height="30" as="geometry"/>
                </mxCell>
                <mxCell id="LJa877xxP14H3rgclWuV-16" value="idUser" style="shape=partialRectangle;connectable=0;fillColor=none;top=0;left=0;bottom=0;right=0;align=left;spacingLeft=6;fontStyle=5;overflow=hidden;" parent="LJa877xxP14H3rgclWuV-14" vertex="1">
                    <mxGeometry x="30" width="150" height="30" as="geometry"/>
                </mxCell>
                <mxCell id="LJa877xxP14H3rgclWuV-20" value="" style="shape=partialRectangle;collapsible=0;dropTarget=0;pointerEvents=0;fillColor=none;top=0;left=0;bottom=0;right=0;points=[[0,0.5],[1,0.5]];portConstraint=eastwest;" parent="LJa877xxP14H3rgclWuV-13" vertex="1">
                    <mxGeometry y="60" width="180" height="30" as="geometry"/>
                </mxCell>
                <mxCell id="LJa877xxP14H3rgclWuV-21" value="" style="shape=partialRectangle;connectable=0;fillColor=none;top=0;left=0;bottom=0;right=0;editable=1;overflow=hidden;" parent="LJa877xxP14H3rgclWuV-20" vertex="1">
                    <mxGeometry width="30" height="30" as="geometry"/>
                </mxCell>
                <mxCell id="LJa877xxP14H3rgclWuV-22" value="email" style="shape=partialRectangle;connectable=0;fillColor=none;top=0;left=0;bottom=0;right=0;align=left;spacingLeft=6;overflow=hidden;" parent="LJa877xxP14H3rgclWuV-20" vertex="1">
                    <mxGeometry x="30" width="150" height="30" as="geometry"/>
                </mxCell>
                <mxCell id="LJa877xxP14H3rgclWuV-23" value="" style="shape=partialRectangle;collapsible=0;dropTarget=0;pointerEvents=0;fillColor=none;top=0;left=0;bottom=0;right=0;points=[[0,0.5],[1,0.5]];portConstraint=eastwest;" parent="LJa877xxP14H3rgclWuV-13" vertex="1">
                    <mxGeometry y="90" width="180" height="30" as="geometry"/>
                </mxCell>
                <mxCell id="LJa877xxP14H3rgclWuV-24" value="" style="shape=partialRectangle;connectable=0;fillColor=none;top=0;left=0;bottom=0;right=0;editable=1;overflow=hidden;" parent="LJa877xxP14H3rgclWuV-23" vertex="1">
                    <mxGeometry width="30" height="30" as="geometry"/>
                </mxCell>
                <mxCell id="LJa877xxP14H3rgclWuV-25" value="nama lengkap" style="shape=partialRectangle;connectable=0;fillColor=none;top=0;left=0;bottom=0;right=0;align=left;spacingLeft=6;overflow=hidden;" parent="LJa877xxP14H3rgclWuV-23" vertex="1">
                    <mxGeometry x="30" width="150" height="30" as="geometry"/>
                </mxCell>
                <mxCell id="Tuf_7gKKcAcKvTBkUJus-0" value="" style="shape=partialRectangle;collapsible=0;dropTarget=0;pointerEvents=0;fillColor=none;top=0;left=0;bottom=0;right=0;points=[[0,0.5],[1,0.5]];portConstraint=eastwest;" parent="LJa877xxP14H3rgclWuV-13" vertex="1">
                    <mxGeometry y="120" width="180" height="30" as="geometry"/>
                </mxCell>
                <mxCell id="Tuf_7gKKcAcKvTBkUJus-1" value="" style="shape=partialRectangle;connectable=0;fillColor=none;top=0;left=0;bottom=0;right=0;editable=1;overflow=hidden;" parent="Tuf_7gKKcAcKvTBkUJus-0" vertex="1">
                    <mxGeometry width="30" height="30" as="geometry"/>
                </mxCell>
                <mxCell id="Tuf_7gKKcAcKvTBkUJus-2" value="password" style="shape=partialRectangle;connectable=0;fillColor=none;top=0;left=0;bottom=0;right=0;align=left;spacingLeft=6;overflow=hidden;" parent="Tuf_7gKKcAcKvTBkUJus-0" vertex="1">
                    <mxGeometry x="30" width="150" height="30" as="geometry"/>
                </mxCell>
                <mxCell id="Tuf_7gKKcAcKvTBkUJus-3" value="" style="shape=partialRectangle;collapsible=0;dropTarget=0;pointerEvents=0;fillColor=none;top=0;left=0;bottom=0;right=0;points=[[0,0.5],[1,0.5]];portConstraint=eastwest;" parent="LJa877xxP14H3rgclWuV-13" vertex="1">
                    <mxGeometry y="150" width="180" height="30" as="geometry"/>
                </mxCell>
                <mxCell id="Tuf_7gKKcAcKvTBkUJus-4" value="" style="shape=partialRectangle;connectable=0;fillColor=none;top=0;left=0;bottom=0;right=0;editable=1;overflow=hidden;" parent="Tuf_7gKKcAcKvTBkUJus-3" vertex="1">
                    <mxGeometry width="30" height="30" as="geometry"/>
                </mxCell>
                <mxCell id="Tuf_7gKKcAcKvTBkUJus-5" value="tipe" style="shape=partialRectangle;connectable=0;fillColor=none;top=0;left=0;bottom=0;right=0;align=left;spacingLeft=6;overflow=hidden;" parent="Tuf_7gKKcAcKvTBkUJus-3" vertex="1">
                    <mxGeometry x="30" width="150" height="30" as="geometry"/>
                </mxCell>
                <mxCell id="v6yS00qEU3GdqEO5pifB-0" value="Administrator" style="shape=table;startSize=30;container=1;collapsible=1;childLayout=tableLayout;fixedRows=1;rowLines=0;fontStyle=1;align=center;resizeLast=1;" parent="C9hFgudLBUilhqlsTBZa-1" vertex="1">
                    <mxGeometry x="390" y="352" width="230" height="100" as="geometry"/>
                </mxCell>
                <mxCell id="v6yS00qEU3GdqEO5pifB-1" value="" style="shape=partialRectangle;collapsible=0;dropTarget=0;pointerEvents=0;fillColor=none;top=0;left=0;bottom=1;right=0;points=[[0,0.5],[1,0.5]];portConstraint=eastwest;" parent="v6yS00qEU3GdqEO5pifB-0" vertex="1">
                    <mxGeometry y="30" width="230" height="30" as="geometry"/>
                </mxCell>
                <mxCell id="v6yS00qEU3GdqEO5pifB-2" value="PK, FK" style="shape=partialRectangle;connectable=0;fillColor=none;top=0;left=0;bottom=0;right=0;fontStyle=1;overflow=hidden;" parent="v6yS00qEU3GdqEO5pifB-1" vertex="1">
                    <mxGeometry width="50" height="30" as="geometry"/>
                </mxCell>
                <mxCell id="v6yS00qEU3GdqEO5pifB-3" value="idUser" style="shape=partialRectangle;connectable=0;fillColor=none;top=0;left=0;bottom=0;right=0;align=left;spacingLeft=6;fontStyle=5;overflow=hidden;" parent="v6yS00qEU3GdqEO5pifB-1" vertex="1">
                    <mxGeometry x="50" width="180" height="30" as="geometry"/>
                </mxCell>
                <mxCell id="v6yS00qEU3GdqEO5pifB-4" value="" style="shape=partialRectangle;collapsible=0;dropTarget=0;pointerEvents=0;fillColor=none;top=0;left=0;bottom=0;right=0;points=[[0,0.5],[1,0.5]];portConstraint=eastwest;" parent="v6yS00qEU3GdqEO5pifB-0" vertex="1">
                    <mxGeometry y="60" width="230" height="30" as="geometry"/>
                </mxCell>
                <mxCell id="v6yS00qEU3GdqEO5pifB-5" value="" style="shape=partialRectangle;connectable=0;fillColor=none;top=0;left=0;bottom=0;right=0;editable=1;overflow=hidden;" parent="v6yS00qEU3GdqEO5pifB-4" vertex="1">
                    <mxGeometry width="50" height="30" as="geometry"/>
                </mxCell>
                <mxCell id="v6yS00qEU3GdqEO5pifB-6" value="last login" style="shape=partialRectangle;connectable=0;fillColor=none;top=0;left=0;bottom=0;right=0;align=left;spacingLeft=6;overflow=hidden;" parent="v6yS00qEU3GdqEO5pifB-4" vertex="1">
                    <mxGeometry x="50" width="180" height="30" as="geometry"/>
                </mxCell>
                <mxCell id="hBaV1yMiHoCqSI7MQTeq-0" value="Member" style="shape=table;html=1;whiteSpace=wrap;startSize=30;container=1;collapsible=0;childLayout=tableLayout;fixedRows=1;rowLines=0;fontStyle=1;align=center;" parent="C9hFgudLBUilhqlsTBZa-1" vertex="1">
                    <mxGeometry x="860" y="350" width="270" height="190" as="geometry"/>
                </mxCell>
                <mxCell id="hBaV1yMiHoCqSI7MQTeq-1" value="" style="shape=partialRectangle;html=1;whiteSpace=wrap;collapsible=0;dropTarget=0;pointerEvents=0;fillColor=none;top=0;left=0;bottom=1;right=0;points=[[0,0.5],[1,0.5]];portConstraint=eastwest;" parent="hBaV1yMiHoCqSI7MQTeq-0" vertex="1">
                    <mxGeometry y="30" width="270" height="30" as="geometry"/>
                </mxCell>
                <mxCell id="hBaV1yMiHoCqSI7MQTeq-2" value="&lt;b&gt;PK, FK&lt;/b&gt;" style="shape=partialRectangle;html=1;whiteSpace=wrap;connectable=0;fillColor=none;top=0;left=0;bottom=0;right=0;overflow=hidden;" parent="hBaV1yMiHoCqSI7MQTeq-1" vertex="1">
                    <mxGeometry width="50" height="30" as="geometry"/>
                </mxCell>
                <mxCell id="hBaV1yMiHoCqSI7MQTeq-3" value="idUser" style="shape=partialRectangle;html=1;whiteSpace=wrap;connectable=0;fillColor=none;top=0;left=0;bottom=0;right=0;align=left;spacingLeft=6;overflow=hidden;fontStyle=1" parent="hBaV1yMiHoCqSI7MQTeq-1" vertex="1">
                    <mxGeometry x="50" width="220" height="30" as="geometry"/>
                </mxCell>
                <mxCell id="hBaV1yMiHoCqSI7MQTeq-4" value="" style="shape=partialRectangle;html=1;whiteSpace=wrap;collapsible=0;dropTarget=0;pointerEvents=0;fillColor=none;top=0;left=0;bottom=0;right=0;points=[[0,0.5],[1,0.5]];portConstraint=eastwest;" parent="hBaV1yMiHoCqSI7MQTeq-0" vertex="1">
                    <mxGeometry y="60" width="270" height="30" as="geometry"/>
                </mxCell>
                <mxCell id="hBaV1yMiHoCqSI7MQTeq-5" value="" style="shape=partialRectangle;html=1;whiteSpace=wrap;connectable=0;fillColor=none;top=0;left=0;bottom=0;right=0;overflow=hidden;" parent="hBaV1yMiHoCqSI7MQTeq-4" vertex="1">
                    <mxGeometry width="50" height="30" as="geometry"/>
                </mxCell>
                <mxCell id="hBaV1yMiHoCqSI7MQTeq-6" value="jenisKelamin" style="shape=partialRectangle;html=1;whiteSpace=wrap;connectable=0;fillColor=none;top=0;left=0;bottom=0;right=0;align=left;spacingLeft=6;overflow=hidden;" parent="hBaV1yMiHoCqSI7MQTeq-4" vertex="1">
                    <mxGeometry x="50" width="220" height="30" as="geometry"/>
                </mxCell>
                <mxCell id="hBaV1yMiHoCqSI7MQTeq-7" value="" style="shape=partialRectangle;html=1;whiteSpace=wrap;collapsible=0;dropTarget=0;pointerEvents=0;fillColor=none;top=0;left=0;bottom=0;right=0;points=[[0,0.5],[1,0.5]];portConstraint=eastwest;" parent="hBaV1yMiHoCqSI7MQTeq-0" vertex="1">
                    <mxGeometry y="90" width="270" height="30" as="geometry"/>
                </mxCell>
                <mxCell id="hBaV1yMiHoCqSI7MQTeq-8" value="" style="shape=partialRectangle;html=1;whiteSpace=wrap;connectable=0;fillColor=none;top=0;left=0;bottom=0;right=0;overflow=hidden;" parent="hBaV1yMiHoCqSI7MQTeq-7" vertex="1">
                    <mxGeometry width="50" height="30" as="geometry"/>
                </mxCell>
                <mxCell id="hBaV1yMiHoCqSI7MQTeq-9" value="asalNegara" style="shape=partialRectangle;html=1;whiteSpace=wrap;connectable=0;fillColor=none;top=0;left=0;bottom=0;right=0;align=left;spacingLeft=6;overflow=hidden;" parent="hBaV1yMiHoCqSI7MQTeq-7" vertex="1">
                    <mxGeometry x="50" width="220" height="30" as="geometry"/>
                </mxCell>
                <mxCell id="Ee8yRbaZpwT6-FTi7hft-3" value="" style="shape=partialRectangle;html=1;whiteSpace=wrap;collapsible=0;dropTarget=0;pointerEvents=0;fillColor=none;top=0;left=0;bottom=0;right=0;points=[[0,0.5],[1,0.5]];portConstraint=eastwest;" parent="hBaV1yMiHoCqSI7MQTeq-0" vertex="1">
                    <mxGeometry y="120" width="270" height="30" as="geometry"/>
                </mxCell>
                <mxCell id="Ee8yRbaZpwT6-FTi7hft-4" value="" style="shape=partialRectangle;html=1;whiteSpace=wrap;connectable=0;fillColor=none;top=0;left=0;bottom=0;right=0;overflow=hidden;" parent="Ee8yRbaZpwT6-FTi7hft-3" vertex="1">
                    <mxGeometry width="50" height="30" as="geometry"/>
                </mxCell>
                <mxCell id="Ee8yRbaZpwT6-FTi7hft-5" value="status" style="shape=partialRectangle;html=1;whiteSpace=wrap;connectable=0;fillColor=none;top=0;left=0;bottom=0;right=0;align=left;spacingLeft=6;overflow=hidden;" parent="Ee8yRbaZpwT6-FTi7hft-3" vertex="1">
                    <mxGeometry x="50" width="220" height="30" as="geometry"/>
                </mxCell>
                <mxCell id="Ee8yRbaZpwT6-FTi7hft-9" value="" style="shape=partialRectangle;html=1;whiteSpace=wrap;collapsible=0;dropTarget=0;pointerEvents=0;fillColor=none;top=0;left=0;bottom=0;right=0;points=[[0,0.5],[1,0.5]];portConstraint=eastwest;" parent="hBaV1yMiHoCqSI7MQTeq-0" vertex="1">
                    <mxGeometry y="150" width="270" height="30" as="geometry"/>
                </mxCell>
                <mxCell id="Ee8yRbaZpwT6-FTi7hft-10" value="" style="shape=partialRectangle;html=1;whiteSpace=wrap;connectable=0;fillColor=none;top=0;left=0;bottom=0;right=0;overflow=hidden;" parent="Ee8yRbaZpwT6-FTi7hft-9" vertex="1">
                    <mxGeometry width="50" height="30" as="geometry"/>
                </mxCell>
                <mxCell id="Ee8yRbaZpwT6-FTi7hft-11" value="tanggalLahir" style="shape=partialRectangle;html=1;whiteSpace=wrap;connectable=0;fillColor=none;top=0;left=0;bottom=0;right=0;align=left;spacingLeft=6;overflow=hidden;" parent="Ee8yRbaZpwT6-FTi7hft-9" vertex="1">
                    <mxGeometry x="50" width="220" height="30" as="geometry"/>
                </mxCell>
                <mxCell id="Ee8yRbaZpwT6-FTi7hft-12" value="" style="endArrow=block;html=1;exitX=0.5;exitY=0;exitDx=0;exitDy=0;entryX=0;entryY=0.5;entryDx=0;entryDy=0;rounded=0;endFill=1;startArrow=none;startFill=0;jumpSize=7;strokeWidth=2;" parent="C9hFgudLBUilhqlsTBZa-1" source="v6yS00qEU3GdqEO5pifB-0" target="LJa877xxP14H3rgclWuV-23" edge="1">
                    <mxGeometry width="50" height="50" relative="1" as="geometry">
                        <mxPoint x="400" y="260" as="sourcePoint"/>
                        <mxPoint x="450" y="210" as="targetPoint"/>
                        <Array as="points">
                            <mxPoint x="505" y="145"/>
                        </Array>
                    </mxGeometry>
                </mxCell>
                <mxCell id="Ee8yRbaZpwT6-FTi7hft-13" value="" style="endArrow=block;html=1;exitX=0.5;exitY=0;exitDx=0;exitDy=0;entryX=1;entryY=0.5;entryDx=0;entryDy=0;startArrow=none;startFill=0;endFill=1;strokeWidth=2;rounded=0;" parent="C9hFgudLBUilhqlsTBZa-1" source="hBaV1yMiHoCqSI7MQTeq-0" target="LJa877xxP14H3rgclWuV-23" edge="1">
                    <mxGeometry width="50" height="50" relative="1" as="geometry">
                        <mxPoint x="910" y="305" as="sourcePoint"/>
                        <mxPoint x="1075" y="100" as="targetPoint"/>
                        <Array as="points">
                            <mxPoint x="995" y="145"/>
                        </Array>
                    </mxGeometry>
                </mxCell>
                <mxCell id="S6jMNenoyPuqbT5hehil-0" style="edgeStyle=orthogonalEdgeStyle;rounded=0;orthogonalLoop=1;jettySize=auto;html=1;entryX=0;entryY=0.5;entryDx=0;entryDy=0;startArrow=block;startFill=1;endArrow=none;endFill=0;strokeWidth=2;" parent="C9hFgudLBUilhqlsTBZa-1" source="hBaV1yMiHoCqSI7MQTeq-7" target="EPEtj2tAFXSLmcRJbOHo-7" edge="1">
                    <mxGeometry relative="1" as="geometry"/>
                </mxCell>
                <mxCell id="ict14hkcJBRVU7LXBWNG-0" value="" style="endArrow=none;html=1;strokeWidth=2;exitX=1;exitY=0.5;exitDx=0;exitDy=0;startArrow=block;startFill=1;endFill=0;entryX=0;entryY=0.5;entryDx=0;entryDy=0;" parent="C9hFgudLBUilhqlsTBZa-1" edge="1">
                    <mxGeometry width="50" height="50" relative="1" as="geometry">
                        <mxPoint x="770" y="727" as="sourcePoint"/>
                        <mxPoint x="905" y="727" as="targetPoint"/>
                    </mxGeometry>
                </mxCell>
                <mxCell id="hVgawRsf5iOSjx8g8p2L-20" value="DetailKoleksi" style="shape=table;startSize=30;container=1;collapsible=1;childLayout=tableLayout;fixedRows=1;rowLines=0;fontStyle=1;align=center;resizeLast=1;" parent="C9hFgudLBUilhqlsTBZa-1" vertex="1">
                    <mxGeometry x="290" y="680" width="180" height="120" as="geometry"/>
                </mxCell>
                <mxCell id="hVgawRsf5iOSjx8g8p2L-21" value="" style="shape=partialRectangle;collapsible=0;dropTarget=0;pointerEvents=0;fillColor=none;top=0;left=0;bottom=1;right=0;points=[[0,0.5],[1,0.5]];portConstraint=eastwest;" parent="hVgawRsf5iOSjx8g8p2L-20" vertex="1">
                    <mxGeometry y="30" width="180" height="30" as="geometry"/>
                </mxCell>
                <mxCell id="hVgawRsf5iOSjx8g8p2L-22" value="PK" style="shape=partialRectangle;connectable=0;fillColor=none;top=0;left=0;bottom=0;right=0;fontStyle=1;overflow=hidden;" parent="hVgawRsf5iOSjx8g8p2L-21" vertex="1">
                    <mxGeometry width="30" height="30" as="geometry"/>
                </mxCell>
                <mxCell id="hVgawRsf5iOSjx8g8p2L-23" value="idDetailKoleksi" style="shape=partialRectangle;connectable=0;fillColor=none;top=0;left=0;bottom=0;right=0;align=left;spacingLeft=6;fontStyle=5;overflow=hidden;" parent="hVgawRsf5iOSjx8g8p2L-21" vertex="1">
                    <mxGeometry x="30" width="150" height="30" as="geometry"/>
                </mxCell>
                <mxCell id="hVgawRsf5iOSjx8g8p2L-24" value="" style="shape=partialRectangle;collapsible=0;dropTarget=0;pointerEvents=0;fillColor=none;top=0;left=0;bottom=0;right=0;points=[[0,0.5],[1,0.5]];portConstraint=eastwest;" parent="hVgawRsf5iOSjx8g8p2L-20" vertex="1">
                    <mxGeometry y="60" width="180" height="30" as="geometry"/>
                </mxCell>
                <mxCell id="hVgawRsf5iOSjx8g8p2L-25" value="FK" style="shape=partialRectangle;connectable=0;fillColor=none;top=0;left=0;bottom=0;right=0;editable=1;overflow=hidden;" parent="hVgawRsf5iOSjx8g8p2L-24" vertex="1">
                    <mxGeometry width="30" height="30" as="geometry"/>
                </mxCell>
                <mxCell id="hVgawRsf5iOSjx8g8p2L-26" value="IdKoleksi" style="shape=partialRectangle;connectable=0;fillColor=none;top=0;left=0;bottom=0;right=0;align=left;spacingLeft=6;overflow=hidden;" parent="hVgawRsf5iOSjx8g8p2L-24" vertex="1">
                    <mxGeometry x="30" width="150" height="30" as="geometry"/>
                </mxCell>
                <mxCell id="hVgawRsf5iOSjx8g8p2L-27" value="" style="shape=partialRectangle;collapsible=0;dropTarget=0;pointerEvents=0;fillColor=none;top=0;left=0;bottom=0;right=0;points=[[0,0.5],[1,0.5]];portConstraint=eastwest;" parent="hVgawRsf5iOSjx8g8p2L-20" vertex="1">
                    <mxGeometry y="90" width="180" height="30" as="geometry"/>
                </mxCell>
                <mxCell id="hVgawRsf5iOSjx8g8p2L-28" value="FK" style="shape=partialRectangle;connectable=0;fillColor=none;top=0;left=0;bottom=0;right=0;editable=1;overflow=hidden;" parent="hVgawRsf5iOSjx8g8p2L-27" vertex="1">
                    <mxGeometry width="30" height="30" as="geometry"/>
                </mxCell>
                <mxCell id="hVgawRsf5iOSjx8g8p2L-29" value="IdFilm" style="shape=partialRectangle;connectable=0;fillColor=none;top=0;left=0;bottom=0;right=0;align=left;spacingLeft=6;overflow=hidden;" parent="hVgawRsf5iOSjx8g8p2L-27" vertex="1">
                    <mxGeometry x="30" width="150" height="30" as="geometry"/>
                </mxCell>
                <mxCell id="kCE0xPwbIv0HLvfPuuag-2" value="" style="line;strokeWidth=1;fillColor=none;align=left;verticalAlign=middle;spacingTop=-1;spacingLeft=3;spacingRight=3;rotatable=0;labelPosition=right;points=[];portConstraint=eastwest;" parent="C9hFgudLBUilhqlsTBZa-1" vertex="1">
                    <mxGeometry x="1280" y="99" width="190" height="8" as="geometry"/>
                </mxCell>
                <mxCell id="hVgawRsf5iOSjx8g8p2L-51" value="" style="endArrow=none;html=1;strokeWidth=2;entryX=0;entryY=0.5;entryDx=0;entryDy=0;exitX=1;exitY=0.5;exitDx=0;exitDy=0;startArrow=block;startFill=1;" parent="C9hFgudLBUilhqlsTBZa-1" source="EPEtj2tAFXSLmcRJbOHo-40" target="hVgawRsf5iOSjx8g8p2L-21" edge="1">
                    <mxGeometry width="50" height="50" relative="1" as="geometry">
                        <mxPoint x="190" y="900" as="sourcePoint"/>
                        <mxPoint x="240" y="850" as="targetPoint"/>
                    </mxGeometry>
                </mxCell>
                <mxCell id="hVgawRsf5iOSjx8g8p2L-52" value="" style="endArrow=block;html=1;strokeWidth=2;entryX=0;entryY=0.5;entryDx=0;entryDy=0;exitX=1;exitY=0.5;exitDx=0;exitDy=0;endFill=1;" parent="C9hFgudLBUilhqlsTBZa-1" edge="1">
                    <mxGeometry width="50" height="50" relative="1" as="geometry">
                        <mxPoint x="470" y="727" as="sourcePoint"/>
                        <mxPoint x="590" y="727" as="targetPoint"/>
                    </mxGeometry>
                </mxCell>
                <mxCell id="hVgawRsf5iOSjx8g8p2L-56" value="History" style="shape=table;startSize=30;container=1;collapsible=1;childLayout=tableLayout;fixedRows=1;rowLines=0;fontStyle=1;align=center;resizeLast=1;" parent="C9hFgudLBUilhqlsTBZa-1" vertex="1">
                    <mxGeometry x="905" y="680" width="180" height="150" as="geometry"/>
                </mxCell>
                <mxCell id="hVgawRsf5iOSjx8g8p2L-57" value="" style="shape=partialRectangle;collapsible=0;dropTarget=0;pointerEvents=0;fillColor=none;top=0;left=0;bottom=1;right=0;points=[[0,0.5],[1,0.5]];portConstraint=eastwest;" parent="hVgawRsf5iOSjx8g8p2L-56" vertex="1">
                    <mxGeometry y="30" width="180" height="30" as="geometry"/>
                </mxCell>
                <mxCell id="hVgawRsf5iOSjx8g8p2L-58" value="PK" style="shape=partialRectangle;connectable=0;fillColor=none;top=0;left=0;bottom=0;right=0;fontStyle=1;overflow=hidden;" parent="hVgawRsf5iOSjx8g8p2L-57" vertex="1">
                    <mxGeometry width="30" height="30" as="geometry"/>
                </mxCell>
                <mxCell id="hVgawRsf5iOSjx8g8p2L-59" value="idHistory" style="shape=partialRectangle;connectable=0;fillColor=none;top=0;left=0;bottom=0;right=0;align=left;spacingLeft=6;fontStyle=5;overflow=hidden;" parent="hVgawRsf5iOSjx8g8p2L-57" vertex="1">
                    <mxGeometry x="30" width="150" height="30" as="geometry"/>
                </mxCell>
                <mxCell id="hVgawRsf5iOSjx8g8p2L-84" value="" style="shape=partialRectangle;collapsible=0;dropTarget=0;pointerEvents=0;fillColor=none;top=0;left=0;bottom=1;right=0;points=[[0,0.5],[1,0.5]];portConstraint=eastwest;" parent="hVgawRsf5iOSjx8g8p2L-56" vertex="1">
                    <mxGeometry y="60" width="180" height="30" as="geometry"/>
                </mxCell>
                <mxCell id="hVgawRsf5iOSjx8g8p2L-85" value="FK" style="shape=partialRectangle;connectable=0;fillColor=none;top=0;left=0;bottom=0;right=0;fontStyle=1;overflow=hidden;" parent="hVgawRsf5iOSjx8g8p2L-84" vertex="1">
                    <mxGeometry width="30" height="30" as="geometry"/>
                </mxCell>
                <mxCell id="hVgawRsf5iOSjx8g8p2L-86" value="idUser" style="shape=partialRectangle;connectable=0;fillColor=none;top=0;left=0;bottom=0;right=0;align=left;spacingLeft=6;fontStyle=5;overflow=hidden;" parent="hVgawRsf5iOSjx8g8p2L-84" vertex="1">
                    <mxGeometry x="30" width="150" height="30" as="geometry"/>
                </mxCell>
                <mxCell id="hVgawRsf5iOSjx8g8p2L-87" value="" style="shape=partialRectangle;collapsible=0;dropTarget=0;pointerEvents=0;fillColor=none;top=0;left=0;bottom=1;right=0;points=[[0,0.5],[1,0.5]];portConstraint=eastwest;" parent="hVgawRsf5iOSjx8g8p2L-56" vertex="1">
                    <mxGeometry y="90" width="180" height="30" as="geometry"/>
                </mxCell>
                <mxCell id="hVgawRsf5iOSjx8g8p2L-88" value="FK" style="shape=partialRectangle;connectable=0;fillColor=none;top=0;left=0;bottom=0;right=0;fontStyle=1;overflow=hidden;" parent="hVgawRsf5iOSjx8g8p2L-87" vertex="1">
                    <mxGeometry width="30" height="30" as="geometry"/>
                </mxCell>
                <mxCell id="hVgawRsf5iOSjx8g8p2L-89" value="idFilm" style="shape=partialRectangle;connectable=0;fillColor=none;top=0;left=0;bottom=0;right=0;align=left;spacingLeft=6;fontStyle=5;overflow=hidden;" parent="hVgawRsf5iOSjx8g8p2L-87" vertex="1">
                    <mxGeometry x="30" width="150" height="30" as="geometry"/>
                </mxCell>
                <mxCell id="hVgawRsf5iOSjx8g8p2L-75" value="" style="shape=partialRectangle;collapsible=0;dropTarget=0;pointerEvents=0;fillColor=none;top=0;left=0;bottom=0;right=0;points=[[0,0.5],[1,0.5]];portConstraint=eastwest;" parent="hVgawRsf5iOSjx8g8p2L-56" vertex="1">
                    <mxGeometry y="120" width="180" height="30" as="geometry"/>
                </mxCell>
                <mxCell id="hVgawRsf5iOSjx8g8p2L-76" value="" style="shape=partialRectangle;connectable=0;fillColor=none;top=0;left=0;bottom=0;right=0;editable=1;overflow=hidden;" parent="hVgawRsf5iOSjx8g8p2L-75" vertex="1">
                    <mxGeometry width="30" height="30" as="geometry"/>
                </mxCell>
                <mxCell id="hVgawRsf5iOSjx8g8p2L-77" value="tanggalAkses" style="shape=partialRectangle;connectable=0;fillColor=none;top=0;left=0;bottom=0;right=0;align=left;spacingLeft=6;overflow=hidden;" parent="hVgawRsf5iOSjx8g8p2L-75" vertex="1">
                    <mxGeometry x="30" width="150" height="30" as="geometry"/>
                </mxCell>
            </root>
        </mxGraphModel>
    </diagram>
</mxfile>